<?xml version="1.0" encoding="utf-8"?>
<!-- Generator: Adobe Illustrator 19.1.0, SVG Export Plug-In . SVG Version: 6.00 Build 0)  -->
<svg version="1.1" id="Lager_1" xmlns="http://www.w3.org/2000/svg" xmlns:xlink="http://www.w3.org/1999/xlink" x="0px" y="0px"
	 viewBox="0 0 352 143.6" style="enable-background:new 0 0 352 143.6;" xml:space="preserve">
<style type="text/css">
	.st0{fill:#CFA175;}
</style>
<path d="M1.3,0L1.3,0v120v1.6l1.6,0.2c4,0.6,17.3,3.7,19,18.9l0.2,1.6h1.6h304.8h1.6l0.2-1.6c0.6-4,3.7-17.3,18.9-19l1.6-0.2v-1.6V0
	l0,0H1.3z"/>
<path class="st0" d="M331.1,143.6H20.9l-0.3-2.7c-1.6-14.3-14.2-17.2-18-17.8L0,122.7V0h2.5v120.5l0.5,0.1c4.2,0.6,18.2,4,20.1,20
	l0.1,0.5h305.8l0.1-0.5c0.6-4.2,3.9-18.2,20-20.1l0.5-0.1V0h2.5v122.7l-2.7,0.3c-14.3,1.6-17.2,14.2-17.8,18L331.1,143.6z"/>
<path class="st0" d="M326.2,137.9H25.9l-0.1-0.3c-3-14.2-14.8-18.4-19.8-19.6l-0.3-0.1V0h0.8v117.2c5.3,1.3,16.9,5.8,20,19.9h299
	c1.3-5.3,5.8-16.9,19.9-20V0h0.8v117.7l-0.3,0.1c-14.2,3-18.4,14.8-19.6,19.8L326.2,137.9z"/>
<g>
	<path class="st0" d="M306.6,97.7l-9.8-27.6h6.6v-4.7h-8.3l-11-30.8c-0.4-1.2-1.2-2.8-2.6-4.3h9.9v-4.7h-63.5v4.7h6.6l-23.9,67.3
		l-23.8-66.8h6.9v-4.7h-60.3v4.7h5.8c-1.1,1.3-1.8,2.7-2.2,3.8l-22.4,63.1H112V30.8h4.4v-4.7H96.8v4.7h5.4c-1.5,2.1-2.3,4.6-2.3,7.4
		v27.2H64.3l0-26.2C64.3,26,51,25.8,50.9,25.8h-10v4.7h10c0,0,0.5,0,1.2,0.1v34.7H40.9v4.7h11.2v27.5c-0.3,0-0.6,0.1-1,0.1h-2.3
		h-7.9v4.7h7.9h2.3h17.3v-4.7h-7.2c0.5-0.7,0.9-1.3,1.2-2c1.6-3.1,1.8-6.2,1.8-6.4V70.1h35.6v27.6h-3.1v4.7h34.9v-4.7H127l9.8-27.6
		h28.8l9.8,27.6h-5.2v4.7h45.9h8.3h26.9v-4.7h-5.5l9.8-27.6h28.8l9.8,27.6h-5.8v4.7H315v-4.7H306.6z M56.8,32.6
		c1.8,1.5,2.8,3.6,2.8,6.6v50c0,0.7-0.4,4.1-2.8,6.4V32.6z M242.1,30.3L220,92.4l0,0.1c0,0-1,3-4.2,4.4l23.7-66.6H242.1z
		 M205.3,96.8c-3.1-1.4-4.1-4.2-4.1-4.3l-21.9-61.7h2.6L205.3,96.8z M198.9,97.7h-11.1l-22.4-63.1c-0.3-1.1-1.1-2.4-2.2-3.8h11.1
		l22.4,63.1C197,94.9,197.8,96.3,198.9,97.7 M104.6,38.2c0-2.4,0.8-4.3,2.4-5.8l0.3-0.2v65.5h-2.7V38.2z M119.7,97.7l21.9-61.6
		l0-0.1c0,0,0.9-2.7,3.9-4.2L122,97.7H119.7z M138.5,65.4l12.3-34.6h0.9L164,65.4H138.5z M157,31.8c3,1.5,3.9,4.2,3.9,4.2l0,0.1
		l21.9,61.6h-2.4L157,31.8z M222.3,97.7c1.1-1.3,1.9-2.7,2.2-3.8l22.6-63.6h11.5c-1.4,1.5-2.3,3.1-2.6,4.3l-22.4,63.1h-9H222.3z
		 M238.5,97.7l21.9-61.6l0-0.1c0,0,0.9-2.7,3.9-4.2l-23.4,65.9H238.5z M257.3,65.4l12.3-34.6h0.9l12.3,34.6H257.3z M275.9,31.8
		c3,1.5,3.9,4.2,3.9,4.2l0,0.1l21.9,61.6h-2.4L275.9,31.8z"/>
	<path class="st0" d="M77.4,119.4c-1.5,0-2.5-1-2.6-2.4l1.3-0.3c0,1,0.6,1.4,1.3,1.4c0.7,0,1.2-0.4,1.2-1c0-0.6-0.4-0.8-1.5-1
		c-1.7-0.4-2.3-1.1-2.3-2.1c0-1.3,1.2-2.2,2.5-2.2c1.4,0,2.3,0.9,2.5,2.1l-1.3,0.3c-0.1-0.8-0.6-1.1-1.2-1.1c-0.6,0-1.1,0.3-1.1,0.8
		c0,0.5,0.4,0.6,1.3,0.9c1.7,0.4,2.4,1.1,2.4,2.3C80.1,118.4,78.9,119.4,77.4,119.4"/>
	<polygon class="st0" points="91.3,119.3 87.7,115.8 87.7,119.3 86.3,119.3 86.3,111.8 87.7,111.8 87.7,115.4 91,111.8 92.8,111.8 
		89.3,115.5 93.2,119.3 	"/>
	<path class="st0" d="M103.8,119.3l-0.9-2h-2.7l-0.9,2h-1.5l3.6-7.7h0.3l3.6,7.7H103.8z M101.6,114.4l-0.8,1.7h1.6L101.6,114.4z"/>
	<polygon class="st0" points="112.1,113.1 112.1,114.9 115.3,114.9 115.3,116.2 112.1,116.2 112.1,119.3 110.7,119.3 110.7,111.8 
		115.4,111.8 115.4,113.1 	"/>
	<polygon class="st0" points="123,113.1 123,114.9 126.1,114.9 126.1,116.2 123,116.2 123,119.3 121.6,119.3 121.6,111.8 
		126.2,111.8 126.2,113.1 	"/>
	<polygon class="st0" points="132.4,119.3 132.4,111.8 137.1,111.8 137.1,113.1 133.8,113.1 133.8,114.9 137,114.9 137,116.2 
		133.8,116.2 133.8,118 137.1,118 137.1,119.3 	"/>
	<path class="st0" d="M148.1,119.3l-3.1-3.8v-0.3h1.2c0.7,0,1.2-0.4,1.2-1c0-0.6-0.5-1-1.2-1h-1.4v6.2h-1.4v-7.5h2.9
		c1.6,0,2.6,1,2.6,2.3c0,1-0.8,1.9-1.7,2l2.6,3.1H148.1z"/>
	<rect x="155.5" y="111.8" class="st0" width="1.4" height="7.5"/>
	<path class="st0" d="M176.5,119.3l-0.6-0.7c-0.5,0.4-1.1,0.8-2,0.8c-2,0-2.8-1.4-2.8-2.3c0-0.9,0.6-1.7,1.2-2.1
		c-0.3-0.4-0.6-0.8-0.6-1.5c0-0.9,0.8-1.8,2-1.8c0.6,0,1.2,0.1,1.8,0.7l-0.8,1c-0.4-0.4-0.7-0.5-1-0.5c-0.4,0-0.7,0.3-0.7,0.6
		c0,0.3,0.3,0.6,0.8,1.1l1.9,2c0.1-0.4,0.1-1-0.2-1.3h-0.9v-1.1h3.4v1.1H177c0.2,0.6,0.2,1.5-0.3,2.3l1.6,1.7H176.5z M173.2,115.9
		c-0.4,0.3-0.7,0.7-0.7,1.1c0,0.6,0.6,1.2,1.4,1.2c0.4,0,0.8-0.2,1.1-0.4L173.2,115.9z"/>
	<path class="st0" d="M194.3,119.4c-1.5,0-2.5-1-2.6-2.4l1.3-0.3c0,1,0.6,1.4,1.3,1.4c0.7,0,1.2-0.4,1.2-1c0-0.6-0.4-0.8-1.5-1
		c-1.7-0.4-2.3-1.1-2.3-2.1c0-1.3,1.2-2.2,2.5-2.2c1.4,0,2.3,0.9,2.5,2.1l-1.3,0.3c-0.1-0.8-0.6-1.1-1.2-1.1c-0.6,0-1.1,0.3-1.1,0.8
		c0,0.5,0.4,0.6,1.3,0.9c1.7,0.4,2.4,1.1,2.4,2.3C197,118.4,195.8,119.4,194.3,119.4"/>
	<path class="st0" d="M208.3,119.3l-0.9-2h-2.7l-0.9,2h-1.5l3.6-7.7h0.3l3.6,7.7H208.3z M206.1,114.4l-0.8,1.7h1.6L206.1,114.4z"/>
	<polygon class="st0" points="215.2,119.3 215.2,111.8 216.6,111.8 216.6,118 219.9,118 219.9,119.3 	"/>
	<path class="st0" d="M228.9,119.4c-2.2,0-3.9-1.7-3.9-3.8c0-2.1,1.7-3.8,3.9-3.8c2.2,0,3.9,1.7,3.9,3.8
		C232.8,117.7,231.1,119.4,228.9,119.4 M228.9,113.1c-1.4,0-2.5,1.1-2.5,2.5c0,1.4,1.1,2.5,2.5,2.5c1.4,0,2.5-1.1,2.5-2.5
		C231.4,114.2,230.3,113.1,228.9,113.1"/>
	<polygon class="st0" points="244.7,119.5 240.3,114.7 240.3,119.3 238.9,119.3 238.9,111.6 239.2,111.6 243.7,116.5 243.7,111.8 
		245.1,111.8 245.1,119.5 	"/>
	<path class="st0" d="M255.1,119.4c-2.2,0-3.9-1.7-3.9-3.8c0-2.1,1.7-3.8,3.9-3.8c1.2,0,2.2,0.5,3.1,1.6l-1,0.8
		c-0.7-0.8-1.3-1.1-2.1-1.1c-1.4,0-2.5,1.1-2.5,2.5s1.1,2.5,2.5,2.5c1.2,0,2.1-0.8,2.2-1.9h-2.5v-1.3h3.9v0.7
		C258.8,117.7,257.3,119.4,255.1,119.4"/>
	<polygon class="st0" points="264.9,119.3 264.9,111.8 269.5,111.8 269.5,113.1 266.3,113.1 266.3,114.9 269.4,114.9 269.4,116.2 
		266.3,116.2 266.3,118 269.5,118 269.5,119.3 	"/>
	<path class="st0" d="M280.5,119.3l-3.1-3.8v-0.3h1.2c0.7,0,1.2-0.4,1.2-1c0-0.6-0.5-1-1.2-1h-1.4v6.2h-1.4v-7.5h2.9
		c1.6,0,2.6,1,2.6,2.3c0,1-0.8,1.9-1.7,2l2.6,3.1H280.5z"/>
</g>
</svg>
